<?xml version="1.0" standalone="no"?>
<!DOCTYPE svg PUBLIC "-//W3C//DTD SVG 20010904//EN"
 "http://www.w3.org/TR/2001/REC-SVG-20010904/DTD/svg10.dtd">
<svg version="1.0" xmlns="http://www.w3.org/2000/svg"
 width="260.000000pt" height="260.000000pt" viewBox="0 0 260.000000 260.000000"
 preserveAspectRatio="xMidYMid meet">
<metadata>
Created by potrace 1.14, written by Peter Selinger 2001-2017
</metadata>
<g transform="translate(0.000000,260.000000) scale(0.100000,-0.100000)"
fill="#000000" stroke="none">
<path d="M1161 2539 c-157 -19 -357 -86 -486 -161 -568 -333 -783 -1021 -506
-1614 110 -235 328 -457 566 -576 348 -175 747 -181 1111 -17 165 73 371 246
486 406 189 263 266 601 213 932 -82 505 -502 927 -1010 1016 -109 19 -284 26
-374 14z m336 -164 c413 -78 743 -387 850 -793 22 -86 25 -117 26 -267 0 -140
-4 -183 -21 -245 -55 -206 -138 -355 -274 -496 -68 -71 -88 -97 -89 -120 0
-22 -5 -14 -23 36 -12 36 -30 77 -39 91 l-17 26 62 64 c35 35 76 72 91 82 40
26 53 65 33 100 -13 23 -14 37 -5 76 6 31 7 79 1 139 -8 81 -14 100 -50 159
-22 38 -55 82 -74 100 -45 43 -155 93 -221 100 -65 7 -175 -11 -237 -38 -83
-37 -220 -193 -220 -251 0 -16 -8 -58 -17 -93 l-17 -63 26 -49 c24 -48 25 -49
7 -82 -13 -25 -15 -39 -8 -59 17 -44 69 -71 69 -35 0 9 13 -4 30 -30 52 -83
158 -142 280 -157 57 -6 60 -8 20 -9 -40 -1 -106 12 -177 34 -21 7 -26 0 -54
-60 -19 -40 -36 -98 -43 -145 -6 -43 -14 -81 -18 -85 -3 -3 -9 12 -13 34 -8
46 -118 452 -133 492 -9 21 -22 29 -74 42 -35 9 -74 20 -88 24 -23 6 -23 4 13
-44 35 -48 84 -145 113 -226 13 -38 13 -38 -26 -81 -22 -24 -40 -46 -40 -50 0
-4 20 -26 45 -50 25 -25 45 -49 45 -54 0 -6 -26 16 -57 49 l-57 60 43 41 c36
35 42 46 37 70 -9 45 -71 173 -121 247 -25 38 -45 74 -45 80 0 6 15 18 33 27
17 9 49 32 70 50 20 19 43 34 50 34 6 0 18 4 26 9 11 7 11 13 -3 32 -24 35
-20 47 20 55 34 6 36 8 29 38 -12 54 -11 57 30 74 81 32 82 35 15 76 -33 21
-58 41 -55 45 2 5 30 18 62 29 32 12 76 33 98 46 l40 25 -70 31 c-38 17 -72
33 -74 36 -3 2 26 35 63 73 l68 69 -86 12 c-47 7 -88 15 -90 19 -3 4 18 45 44
91 27 46 48 86 45 88 -2 2 -40 -8 -85 -23 -45 -15 -84 -25 -86 -22 -8 8 -24
127 -24 179 l0 48 -50 -31 c-27 -16 -71 -50 -97 -74 l-49 -43 -64 79 c-36 43
-68 79 -71 79 -4 0 -10 -21 -13 -47 -4 -27 -14 -72 -22 -102 -12 -42 -19 -52
-32 -47 -9 3 -48 16 -87 30 -38 14 -71 23 -73 22 -1 -2 9 -38 23 -81 15 -42
24 -83 21 -90 -3 -8 -35 -15 -88 -19 -46 -4 -96 -9 -111 -12 l-28 -6 49 -52
c27 -29 57 -66 65 -83 19 -35 16 -38 -80 -107 -29 -21 -53 -40 -53 -42 0 -2
20 -9 45 -15 27 -7 62 -27 88 -49 l42 -38 -54 -56 -55 -55 35 -14 c19 -8 48
-19 64 -24 32 -11 33 -16 20 -90 l-7 -42 53 -3 54 -3 3 -37 c3 -40 11 -45 43
-28 19 11 19 12 -5 53 -25 43 -59 155 -71 237 -11 72 3 41 19 -41 30 -155 77
-238 156 -274 68 -31 55 -48 -69 -90 l-109 -36 -36 -127 c-21 -70 -43 -145
-49 -166 -6 -21 -13 -33 -15 -25 -3 8 -34 49 -69 93 -113 139 -181 277 -225
453 -33 132 -31 360 5 494 84 317 279 564 557 704 103 52 159 72 270 95 108
24 308 26 417 5z m-684 -1540 c-3 -9 -8 -14 -10 -11 -3 3 -2 9 2 15 9 16 15
13 8 -4z m-18 -42 c-4 -10 -22 -60 -41 -111 l-34 -93 45 -41 c25 -23 45 -47
45 -55 0 -7 -22 11 -49 41 -44 49 -49 58 -42 83 15 50 72 193 78 193 3 0 2 -8
-2 -17z"/>
</g>
</svg>
